# xmcd CD database file
#
# Track frame offsets:
#	150
#	20889
#	33999
#	52394
#	69897
#	74596
#	94301
#	108389
#	127310
#	143822
#	158418
#	176617
#	187320
#	206570
#	223351
#
# Disc length: 3137 seconds
#
# Revision: 0
# Processed by: cddbd v1.5.2PL0 Copyright (c) Steve Scherf et al.
# Submitted via: CDex 1.51
#
DISCID=f50c3f0f
DTITLE=Lumi - All These Things
DYEAR=2009
DGENRE=Jazz
TTITLE0=Oh, My Heart
TTITLE1=Stray Cats
TTITLE2=Wintersong
TTITLE3=All These Things
TTITLE4=Scattered
TTITLE5=Wunderland
TTITLE6=Ima Nolang
TTITLE7=Legend
TTITLE8=This Girl's In Love
TTITLE9=Close To You
TTITLE10=Some Do
TTITLE11=One Moment
TTITLE12=Another Big Sleep
TTITLE13=Smell
TTITLE14=Moss
EXTD=YEAR: 2009
EXTT0=
EXTT1=
EXTT2=
EXTT3=
EXTT4=
EXTT5=
EXTT6=
EXTT7=
EXTT8=
EXTT9=
EXTT10=
EXTT11=
EXTT12=
EXTT13=
EXTT14=
PLAYORDER=
